<?xml version="1.0" standalone="no"?>
<!DOCTYPE svg PUBLIC "-//W3C//DTD SVG 20010904//EN"
 "http://www.w3.org/TR/2001/REC-SVG-20010904/DTD/svg10.dtd">
<svg version="1.0" xmlns="http://www.w3.org/2000/svg"
 width="1629.000000pt" height="1629.000000pt" viewBox="0 0 1629.000000 1629.000000"
 preserveAspectRatio="xMidYMid meet">
<metadata>
Created by potrace 1.11, written by Peter Selinger 2001-2013
</metadata>
<g transform="translate(0.000000,1629.000000) scale(0.100000,-0.100000)"
fill="#000000" stroke="none">
<path d="M7587 16284 c-1 -1 -60 -4 -132 -8 -71 -3 -143 -8 -160 -11 -39 -5
-130 -16 -177 -20 -21 -2 -50 -6 -65 -9 -15 -3 -48 -8 -73 -12 -25 -3 -92 -15
-150 -25 -58 -11 -116 -22 -130 -25 -336 -60 -1144 -313 -1485 -464 -22 -10
-68 -30 -103 -44 -209 -88 -583 -280 -732 -377 -25 -16 -52 -32 -60 -36 -64
-31 -394 -269 -530 -383 -122 -103 -127 -107 -315 -295 -419 -418 -718 -848
-1030 -1480 -270 -548 -388 -894 -449 -1315 -14 -96 -18 -131 -31 -255 -26
-240 -26 -1083 -1 -1235 3 -14 7 -50 10 -80 8 -81 16 -141 26 -180 5 -19 12
-51 15 -70 30 -179 146 -478 309 -796 137 -267 235 -423 450 -722 61 -85 118
-164 126 -176 84 -120 610 -772 659 -816 4 -3 24 -25 45 -50 73 -83 200 -224
281 -309 44 -46 94 -99 110 -116 17 -18 68 -73 115 -122 85 -89 358 -378 415
-438 102 -108 324 -342 342 -361 13 -13 23 -25 23 -28 0 -5 -124 -277 -210
-461 -23 -49 -75 -163 -116 -252 -40 -89 -92 -202 -115 -250 -42 -90 -69 -149
-109 -238 -12 -27 -42 -90 -65 -140 -23 -49 -55 -117 -70 -150 -36 -80 -300
-609 -329 -660 -12 -22 -33 -60 -47 -85 -14 -25 -37 -64 -52 -87 -15 -24 -27
-45 -27 -48 0 -3 -4 -11 -10 -18 -5 -7 -35 -50 -66 -97 -87 -132 -148 -207
-253 -310 -92 -91 -133 -127 -182 -160 -160 -109 -417 -320 -637 -525 -222
-206 -407 -390 -407 -405 0 -4 29 -34 65 -65 36 -32 81 -72 100 -89 19 -17 73
-62 120 -101 47 -38 87 -72 90 -75 7 -8 259 -201 290 -222 14 -10 43 -31 65
-47 187 -138 617 -410 865 -545 86 -47 468 -237 550 -274 425 -189 823 -329
1285 -452 44 -12 91 -23 105 -26 14 -3 43 -10 65 -16 22 -5 47 -12 55 -14 36
-8 358 -73 390 -78 19 -3 44 -7 55 -10 11 -2 42 -7 68 -10 27 -4 59 -9 70 -12
45 -9 111 -18 202 -29 28 -3 64 -8 80 -10 66 -10 303 -30 485 -42 227 -15 930
-8 1120 11 19 2 69 7 110 10 41 4 91 9 110 11 19 2 58 7 85 10 56 7 256 34
295 40 14 3 43 7 65 10 22 3 63 10 90 15 28 5 64 12 80 15 62 10 90 16 105 20
8 2 31 7 50 10 19 3 62 12 95 20 33 7 94 21 135 30 118 27 394 102 520 142 63
20 117 37 120 38 14 3 211 70 250 85 25 10 101 40 170 66 264 100 756 328 945
439 33 19 67 38 75 41 47 22 250 146 250 154 0 5 -110 121 -245 258 -262 267
-451 440 -740 677 -99 82 -193 161 -210 175 -191 172 -241 219 -310 291 -162
169 -236 290 -276 449 -18 71 -21 102 -16 199 8 151 11 169 62 346 62 213 255
711 395 1020 207 457 349 705 539 945 71 90 213 239 291 305 221 189 513 337
870 444 74 22 146 42 160 45 14 3 61 14 105 25 44 11 118 27 165 36 47 9 94
18 105 20 11 3 88 16 171 29 250 41 394 84 593 179 215 101 355 201 542 387
95 95 120 138 121 209 0 66 -17 110 -136 353 -89 184 -172 376 -180 420 -1 7
-12 45 -24 83 -32 107 -33 121 -47 410 -11 220 -17 309 -30 490 -3 33 -7 103
-10 155 -6 108 -14 224 -21 290 -2 25 -6 128 -9 230 -8 343 24 412 282 594
192 136 313 271 313 351 0 66 -163 223 -481 467 -125 95 -118 90 -309 225
-156 109 -361 258 -405 294 -381 313 -539 508 -579 715 -10 51 -41 157 -66
229 -104 298 -254 576 -517 955 -90 130 -465 616 -493 640 -3 3 -33 39 -67 80
-33 41 -69 84 -80 95 -10 11 -52 58 -93 105 -292 335 -643 678 -901 882 -157
124 -387 284 -494 344 -71 40 -101 57 -110 64 -20 16 -352 179 -445 218 -483
204 -683 267 -1035 327 -16 2 -55 7 -85 10 -30 3 -64 8 -75 10 -51 10 -498 27
-508 19z m-2233 -1821 c18 -21 60 -67 93 -103 32 -36 69 -81 83 -100 33 -48
39 -54 90 -108 l45 -48 123 1 122 1 33 35 c17 19 48 54 67 79 19 25 64 77 100
116 36 39 83 92 105 117 l41 46 134 -34 c74 -20 139 -41 145 -48 13 -14 33
-93 41 -157 3 -25 7 -52 9 -60 2 -8 7 -37 10 -65 6 -45 15 -105 31 -203 4 -26
14 -36 53 -56 26 -14 53 -32 60 -40 8 -9 18 -16 24 -16 5 0 25 -11 44 -26 20
-15 38 -22 46 -17 6 4 17 8 22 9 6 1 30 7 55 14 25 7 52 13 60 15 8 2 67 18
130 35 63 18 124 34 135 35 11 2 21 4 23 4 1 1 4 0 5 -1 2 -2 11 3 20 10 24
20 51 6 82 -40 16 -23 53 -71 82 -106 50 -59 54 -67 48 -100 -4 -20 -24 -70
-44 -111 -58 -115 -131 -288 -131 -308 0 -10 18 -56 40 -103 22 -47 40 -90 40
-96 0 -6 12 -16 28 -22 23 -9 353 -112 422 -131 29 -9 45 -48 54 -135 4 -33 8
-62 11 -66 2 -3 7 -32 10 -63 6 -55 5 -58 -25 -86 -18 -16 -44 -35 -58 -42
-15 -8 -36 -22 -46 -31 -11 -10 -28 -20 -38 -24 -10 -3 -18 -9 -18 -13 0 -4
-34 -22 -75 -40 -41 -18 -75 -37 -75 -41 0 -4 -11 -12 -25 -18 -32 -15 -52
-56 -53 -112 -1 -25 -7 -69 -13 -97 -6 -29 -8 -61 -4 -72 6 -20 12 -28 100
-131 30 -36 91 -109 135 -163 l81 -97 -63 -130 c-41 -84 -70 -132 -83 -136
-11 -4 -127 -8 -258 -9 -191 -2 -241 -5 -248 -16 -4 -8 -41 -46 -80 -86 l-72
-72 2 -53 c1 -29 4 -66 6 -83 3 -16 7 -59 11 -95 3 -36 12 -103 20 -149 8 -46
14 -103 14 -127 0 -39 -3 -44 -35 -60 -19 -9 -35 -20 -35 -24 0 -4 -15 -14
-32 -21 -18 -7 -42 -21 -53 -32 -11 -10 -30 -20 -42 -23 -13 -4 -23 -10 -23
-15 0 -17 -40 -9 -78 14 -38 24 -269 149 -367 200 -52 26 -55 27 -107 13 -149
-39 -168 -47 -183 -77 -9 -16 -15 -31 -15 -34 1 -10 -113 -240 -128 -257 -8
-10 -12 -18 -9 -18 4 0 -3 -18 -14 -40 l-21 -40 -157 0 -156 0 -77 154 c-43
85 -78 158 -78 164 0 5 -11 30 -25 55 -29 50 -48 61 -189 100 l-85 24 -53 -31
c-29 -18 -67 -38 -85 -45 -17 -7 -39 -21 -49 -32 -9 -10 -22 -19 -27 -19 -6 0
-24 -10 -41 -23 -17 -13 -61 -40 -98 -60 -61 -33 -71 -35 -95 -24 -16 6 -34
18 -42 26 -8 7 -27 18 -42 23 -16 5 -31 18 -34 29 -4 10 -9 18 -13 18 -4 -1
-16 -1 -27 1 l-20 1 20 9 c19 7 19 8 2 15 -14 6 -16 10 -6 16 8 4 10 11 6 15
-3 4 -14 1 -22 -6 -9 -7 -15 -9 -14 -4 4 22 -2 35 -13 28 -7 -4 -10 -4 -6 1 4
4 3 14 -4 22 -8 11 -7 12 6 7 9 -3 16 -1 16 5 0 6 -6 11 -14 11 -15 0 -15 58
0 140 6 34 12 89 18 158 3 33 -1 39 -111 162 -13 14 -23 28 -23 32 0 17 -61
21 -286 19 l-240 -2 -34 63 c-62 114 -89 173 -90 189 0 16 84 126 130 169 14
14 38 43 53 65 15 22 50 69 78 104 47 58 51 69 50 111 0 26 -5 60 -11 74 -5
15 -10 49 -10 76 0 52 -17 80 -49 80 -10 0 -24 7 -31 15 -7 8 -17 15 -22 15
-5 0 -18 8 -29 19 -11 10 -33 21 -48 24 -25 5 -120 65 -149 94 -7 7 -18 13
-23 13 -5 0 -22 11 -37 25 l-28 25 14 77 c29 168 36 197 51 212 9 9 102 42
206 74 238 73 242 74 261 117 10 19 29 60 44 91 39 81 32 106 -89 344 -39 77
-71 143 -71 148 0 5 12 24 28 42 15 18 38 48 52 66 36 50 118 129 132 129 7
-1 40 -7 73 -16 33 -8 68 -17 77 -19 9 -2 51 -13 93 -25 42 -12 84 -23 93 -26
70 -17 130 -33 143 -39 11 -4 22 0 30 12 8 10 32 27 54 38 22 11 42 22 45 26
3 3 22 15 43 28 32 19 37 28 38 59 0 20 2 44 4 53 2 14 5 47 20 219 2 25 6 74
10 110 3 36 8 90 11 120 13 157 14 162 37 166 29 5 79 16 177 38 58 13 108 24
112 25 4 1 23 -16 42 -36z m3131 -2899 c101 -7 120 -18 128 -74 7 -42 5 -35
56 -240 23 -91 46 -175 51 -187 8 -20 80 -73 150 -111 45 -25 85 -19 436 69
44 11 87 17 95 14 13 -6 44 -49 97 -137 13 -21 28 -38 33 -38 5 0 9 -5 9 -12
0 -6 7 -19 16 -29 15 -16 15 -22 -1 -63 -10 -25 -24 -51 -32 -58 -8 -7 -30
-35 -48 -63 -18 -27 -42 -61 -54 -74 -11 -13 -21 -30 -21 -37 0 -7 -9 -18 -20
-24 -11 -6 -18 -15 -16 -19 3 -4 -10 -27 -30 -49 -35 -41 -35 -41 -25 -99 6
-32 13 -76 17 -98 3 -22 10 -48 15 -57 8 -15 90 -76 141 -105 21 -11 52 -36
110 -86 18 -16 45 -35 60 -43 54 -28 93 -73 90 -102 -2 -15 -8 -31 -13 -36 -5
-6 -9 -17 -9 -25 0 -20 -51 -184 -60 -194 -4 -5 -51 -10 -104 -12 -53 -2 -101
-7 -107 -10 -5 -4 -77 -8 -159 -10 l-148 -4 -81 -83 -80 -83 4 -222 c3 -122 7
-235 9 -250 3 -15 2 -33 -2 -39 -7 -12 -191 -84 -214 -84 -7 0 -28 -9 -45 -20
-40 -24 -52 -20 -94 33 -19 23 -74 89 -124 147 -50 58 -103 126 -117 151 -25
42 -31 47 -74 53 -26 3 -83 6 -128 6 -71 0 -84 -3 -106 -23 -92 -84 -331 -277
-343 -277 -15 0 -138 58 -147 69 -3 4 -16 12 -30 19 -90 46 -103 59 -97 102 5
32 32 193 58 345 25 149 27 135 -36 230 -32 47 -70 92 -84 99 -14 7 -55 18
-91 25 -36 7 -72 13 -80 15 -66 13 -88 17 -110 20 -14 2 -32 7 -40 10 -8 2
-33 7 -55 10 -63 8 -94 23 -99 48 -10 50 -17 95 -22 138 -3 25 -9 67 -15 93
-13 68 -12 76 14 86 45 17 123 56 172 85 28 16 88 48 135 71 47 23 90 49 97
56 20 25 63 160 63 198 0 27 -27 91 -100 239 -55 111 -100 204 -100 208 0 20
206 234 226 234 5 0 28 -8 50 -19 21 -10 110 -51 197 -91 l158 -72 107 35 c81
27 110 41 119 59 7 13 49 97 94 188 45 91 94 177 111 193 28 27 34 28 91 23
34 -3 103 -8 152 -12z"/>
<path d="M5612 13145 c-86 -19 -199 -62 -222 -85 -3 -3 -18 -12 -35 -20 -43
-22 -204 -179 -211 -207 -4 -12 -10 -23 -14 -23 -4 0 -13 -12 -19 -27 -7 -16
-23 -46 -36 -68 -52 -88 -75 -207 -71 -380 5 -178 16 -220 96 -378 31 -59 203
-247 226 -247 7 0 17 -6 21 -13 19 -31 184 -100 291 -122 128 -26 372 -18 434
16 10 5 23 9 30 9 38 0 199 93 263 151 137 125 167 164 209 269 48 117 63 201
60 339 -3 167 -32 290 -93 392 -11 19 -27 48 -36 65 -28 54 -161 183 -240 231
-57 35 -170 82 -200 84 -3 0 -26 6 -52 14 -62 19 -314 19 -401 0z"/>
<path d="M4539 10743 c-11 -13 -11 -17 -1 -20 6 -3 10 -9 7 -14 -4 -5 1 -6 9
-3 16 6 23 25 9 23 -20 -3 -24 2 -13 16 7 8 10 15 7 15 -2 0 -11 -7 -18 -17z"/>
<path d="M4576 10683 c-6 -14 -5 -15 5 -6 7 7 10 15 7 18 -3 3 -9 -2 -12 -12z"/>
<path d="M4586 10653 c-6 -14 -5 -15 5 -6 7 7 10 15 7 18 -3 3 -9 -2 -12 -12z"/>
<path d="M4615 10641 c-3 -5 -2 -12 3 -15 5 -3 9 1 9 9 0 17 -3 19 -12 6z"/>
<path d="M8315 10533 c-124 -11 -212 -48 -280 -119 -90 -94 -125 -185 -122
-316 2 -61 8 -85 38 -148 38 -79 137 -190 169 -190 9 0 20 -3 24 -7 23 -24
144 -42 196 -30 94 21 191 76 255 145 74 79 109 229 81 351 -28 123 -57 170
-148 243 -61 49 -144 77 -213 71z"/>
</g>
</svg>
